<svg width="512" height="512" viewBox="0 0 512 512" fill="none" xmlns="http://www.w3.org/2000/svg">
<path d="M256 390C288.033 390 314 415.967 314 448C314 480.033 288.033 506 256 506C223.967 506 198 480.033 198 448C198 415.967 223.967 390 256 390Z" stroke="black" stroke-width="12"/>
<path d="M256 262C323.379 262 378 316.621 378 384C378 451.379 323.379 506 256 506C188.621 506 134 451.379 134 384C134 316.621 188.621 262 256 262Z" stroke="black" stroke-width="12"/>
<path d="M256 6C394.071 6 506 117.929 506 256C506 394.071 394.071 506 256 506C117.929 506 6 394.071 6 256C6 117.929 117.929 6 256 6Z" stroke="black" stroke-width="12"/>
</svg>
